<svg width="40" height="40" viewBox="0 0 40 40" fill="none" xmlns="http://www.w3.org/2000/svg">
<circle cx="20" cy="20" r="20" fill="white"/>
<path d="M20 10C14.5 10 10 14.49 10 20.02C10 25.02 13.66 29.17 18.44 29.92V22.92H15.9V20.02H18.44V17.81C18.44 15.3 19.93 13.92 22.22 13.92C23.31 13.92 24.45 14.11 24.45 14.11V16.58H23.19C21.95 16.58 21.56 17.35 21.56 18.14V20.02H24.34L23.89 22.92H21.56V29.92C23.9164 29.5478 26.0622 28.3455 27.6099 26.5301C29.1576 24.7146 30.0054 22.4056 30 20.02C30 14.49 25.5 10 20 10Z" fill="black"/>
</svg>
