<svg width="40" height="40" viewBox="0 0 40 40" fill="none" xmlns="http://www.w3.org/2000/svg">
<circle cx="20" cy="20" r="20" fill="white"/>
<path d="M30.92 15C30.15 15.35 29.32 15.58 28.46 15.69C29.34 15.16 30.02 14.32 30.34 13.31C29.51 13.81 28.59 14.16 27.62 14.36C26.83 13.5 25.72 13 24.46 13C22.11 13 20.19 14.92 20.19 17.29C20.19 17.63 20.23 17.96 20.3 18.27C16.74 18.09 13.57 16.38 11.46 13.79C11.09 14.42 10.88 15.16 10.88 15.94C10.88 17.43 11.63 18.75 12.79 19.5C12.08 19.5 11.42 19.3 10.84 19C10.84 19 10.84 19 10.84 19.03C10.84 21.11 12.32 22.85 14.28 23.24C13.92 23.34 13.54 23.39 13.15 23.39C12.88 23.39 12.61 23.36 12.35 23.31C12.89 25 14.46 26.26 16.35 26.29C14.89 27.45 13.04 28.13 11.02 28.13C10.68 28.13 10.34 28.11 10 28.07C11.9 29.29 14.16 30 16.58 30C24.46 30 28.79 23.46 28.79 17.79C28.79 17.6 28.79 17.42 28.78 17.23C29.62 16.63 30.34 15.87 30.92 15Z" fill="black"/>
</svg>
